<mxfile host="app.diagrams.net" agent="Mozilla/5.0 (Macintosh; Intel Mac OS X 10_15_7) AppleWebKit/537.36 (KHTML, like Gecko) Chrome/131.0.0.0 Safari/537.36" version="25.0.3">
  <diagram name="Страница — 1" id="kcEdLsCiQLVDsa9OzB8h">
    <mxGraphModel dx="954" dy="638" grid="1" gridSize="10" guides="1" tooltips="1" connect="1" arrows="1" fold="1" page="1" pageScale="1" pageWidth="827" pageHeight="1169" math="0" shadow="0">
      <root>
        <mxCell id="0" />
        <mxCell id="1" parent="0" />
        <mxCell id="7Wo7_8ffw9FZAB1oPTl_-17" value="Field&amp;nbsp;" style="swimlane;fontStyle=1;align=center;verticalAlign=top;childLayout=stackLayout;horizontal=1;startSize=26;horizontalStack=0;resizeParent=1;resizeParentMax=0;resizeLast=0;collapsible=1;marginBottom=0;whiteSpace=wrap;html=1;" parent="1" vertex="1">
          <mxGeometry x="330" y="80" width="160" height="60" as="geometry" />
        </mxCell>
        <mxCell id="7Wo7_8ffw9FZAB1oPTl_-18" value="+&amp;nbsp;value" style="text;strokeColor=none;fillColor=none;align=left;verticalAlign=top;spacingLeft=4;spacingRight=4;overflow=hidden;rotatable=0;points=[[0,0.5],[1,0.5]];portConstraint=eastwest;whiteSpace=wrap;html=1;" parent="7Wo7_8ffw9FZAB1oPTl_-17" vertex="1">
          <mxGeometry y="26" width="160" height="26" as="geometry" />
        </mxCell>
        <mxCell id="7Wo7_8ffw9FZAB1oPTl_-19" value="" style="line;strokeWidth=1;fillColor=none;align=left;verticalAlign=middle;spacingTop=-1;spacingLeft=3;spacingRight=3;rotatable=0;labelPosition=right;points=[];portConstraint=eastwest;strokeColor=inherit;" parent="7Wo7_8ffw9FZAB1oPTl_-17" vertex="1">
          <mxGeometry y="52" width="160" height="8" as="geometry" />
        </mxCell>
        <mxCell id="7Wo7_8ffw9FZAB1oPTl_-21" value="Name" style="swimlane;fontStyle=1;align=center;verticalAlign=top;childLayout=stackLayout;horizontal=1;startSize=26;horizontalStack=0;resizeParent=1;resizeParentMax=0;resizeLast=0;collapsible=1;marginBottom=0;whiteSpace=wrap;html=1;" parent="1" vertex="1">
          <mxGeometry x="40" y="200" width="160" height="34" as="geometry" />
        </mxCell>
        <mxCell id="7Wo7_8ffw9FZAB1oPTl_-23" value="" style="line;strokeWidth=1;fillColor=none;align=left;verticalAlign=middle;spacingTop=-1;spacingLeft=3;spacingRight=3;rotatable=0;labelPosition=right;points=[];portConstraint=eastwest;strokeColor=inherit;" parent="7Wo7_8ffw9FZAB1oPTl_-21" vertex="1">
          <mxGeometry y="26" width="160" height="8" as="geometry" />
        </mxCell>
        <mxCell id="7Wo7_8ffw9FZAB1oPTl_-25" value="Phone" style="swimlane;fontStyle=1;align=center;verticalAlign=top;childLayout=stackLayout;horizontal=1;startSize=26;horizontalStack=0;resizeParent=1;resizeParentMax=0;resizeLast=0;collapsible=1;marginBottom=0;whiteSpace=wrap;html=1;" parent="1" vertex="1">
          <mxGeometry x="330" y="200" width="160" height="34" as="geometry" />
        </mxCell>
        <mxCell id="7Wo7_8ffw9FZAB1oPTl_-27" value="" style="line;strokeWidth=1;fillColor=none;align=left;verticalAlign=middle;spacingTop=-1;spacingLeft=3;spacingRight=3;rotatable=0;labelPosition=right;points=[];portConstraint=eastwest;strokeColor=inherit;" parent="7Wo7_8ffw9FZAB1oPTl_-25" vertex="1">
          <mxGeometry y="26" width="160" height="8" as="geometry" />
        </mxCell>
        <mxCell id="mpg4wZVlqjkKpL4CBiqG-19" value="Birthday" style="swimlane;fontStyle=1;align=center;verticalAlign=top;childLayout=stackLayout;horizontal=1;startSize=26;horizontalStack=0;resizeParent=1;resizeParentMax=0;resizeLast=0;collapsible=1;marginBottom=0;whiteSpace=wrap;html=1;" vertex="1" parent="1">
          <mxGeometry x="570" y="200" width="160" height="34" as="geometry" />
        </mxCell>
        <mxCell id="mpg4wZVlqjkKpL4CBiqG-21" value="" style="line;strokeWidth=1;fillColor=none;align=left;verticalAlign=middle;spacingTop=-1;spacingLeft=3;spacingRight=3;rotatable=0;labelPosition=right;points=[];portConstraint=eastwest;strokeColor=inherit;" vertex="1" parent="mpg4wZVlqjkKpL4CBiqG-19">
          <mxGeometry y="26" width="160" height="8" as="geometry" />
        </mxCell>
        <mxCell id="mpg4wZVlqjkKpL4CBiqG-41" value="Record" style="swimlane;fontStyle=1;align=center;verticalAlign=top;childLayout=stackLayout;horizontal=1;startSize=50;horizontalStack=0;resizeParent=1;resizeParentMax=0;resizeLast=0;collapsible=1;marginBottom=0;whiteSpace=wrap;html=1;" vertex="1" parent="1">
          <mxGeometry x="90" y="380" width="250" height="200" as="geometry" />
        </mxCell>
        <mxCell id="mpg4wZVlqjkKpL4CBiqG-42" value="+ name&lt;div&gt;+ phones&lt;/div&gt;&lt;div&gt;+ birthday&lt;/div&gt;" style="text;strokeColor=none;fillColor=none;align=left;verticalAlign=top;spacingLeft=4;spacingRight=4;overflow=hidden;rotatable=0;points=[[0,0.5],[1,0.5]];portConstraint=eastwest;whiteSpace=wrap;html=1;" vertex="1" parent="mpg4wZVlqjkKpL4CBiqG-41">
          <mxGeometry y="50" width="250" height="50" as="geometry" />
        </mxCell>
        <mxCell id="mpg4wZVlqjkKpL4CBiqG-43" value="" style="line;strokeWidth=1;fillColor=none;align=left;verticalAlign=middle;spacingTop=-1;spacingLeft=3;spacingRight=3;rotatable=0;labelPosition=right;points=[];portConstraint=eastwest;strokeColor=inherit;" vertex="1" parent="mpg4wZVlqjkKpL4CBiqG-41">
          <mxGeometry y="100" width="250" height="8" as="geometry" />
        </mxCell>
        <mxCell id="mpg4wZVlqjkKpL4CBiqG-44" value="&lt;p style=&quot;margin: 0px; font-variant-numeric: normal; font-variant-east-asian: normal; font-variant-alternates: normal; font-size-adjust: none; font-kerning: auto; font-optical-sizing: auto; font-feature-settings: normal; font-variation-settings: normal; font-variant-position: normal; font-variant-emoji: normal; font-stretch: normal; font-size: 13px; line-height: normal; font-family: &amp;quot;.AppleSystemUIFontMonospaced&amp;quot;;&quot; class=&quot;p1&quot;&gt;+ add_birthday_method(birthday)&lt;span class=&quot;Apple-converted-space&quot;&gt;&lt;br&gt;&lt;/span&gt;&lt;/p&gt;&lt;p style=&quot;margin: 0px; font-variant-numeric: normal; font-variant-east-asian: normal; font-variant-alternates: normal; font-size-adjust: none; font-kerning: auto; font-optical-sizing: auto; font-feature-settings: normal; font-variation-settings: normal; font-variant-position: normal; font-variant-emoji: normal; font-stretch: normal; font-size: 13px; line-height: normal; font-family: &amp;quot;.AppleSystemUIFontMonospaced&amp;quot;;&quot; class=&quot;p1&quot;&gt;+&amp;nbsp;add_phone(phone)&amp;nbsp;&lt;/p&gt;&lt;p style=&quot;margin: 0px; font-variant-numeric: normal; font-variant-east-asian: normal; font-variant-alternates: normal; font-size-adjust: none; font-kerning: auto; font-optical-sizing: auto; font-feature-settings: normal; font-variation-settings: normal; font-variant-position: normal; font-variant-emoji: normal; font-stretch: normal; font-size: 13px; line-height: normal; font-family: &amp;quot;.AppleSystemUIFontMonospaced&amp;quot;;&quot; class=&quot;p1&quot;&gt;+&amp;nbsp;edit_phone(old_phone, new_phone)&lt;/p&gt;&lt;p style=&quot;margin: 0px; font-variant-numeric: normal; font-variant-east-asian: normal; font-variant-alternates: normal; font-size-adjust: none; font-kerning: auto; font-optical-sizing: auto; font-feature-settings: normal; font-variation-settings: normal; font-variant-position: normal; font-variant-emoji: normal; font-stretch: normal; font-size: 13px; line-height: normal; font-family: &amp;quot;.AppleSystemUIFontMonospaced&amp;quot;;&quot; class=&quot;p1&quot;&gt;+&amp;nbsp;find_phone(search_phone)&lt;/p&gt;&lt;p style=&quot;margin: 0px; font-variant-numeric: normal; font-variant-east-asian: normal; font-variant-alternates: normal; font-size-adjust: none; font-kerning: auto; font-optical-sizing: auto; font-feature-settings: normal; font-variation-settings: normal; font-variant-position: normal; font-variant-emoji: normal; font-stretch: normal; font-size: 13px; line-height: normal; font-family: &amp;quot;.AppleSystemUIFontMonospaced&amp;quot;;&quot; class=&quot;p1&quot;&gt;+&amp;nbsp;remove_phone(deleted_phone)&lt;/p&gt;" style="text;strokeColor=none;fillColor=none;align=left;verticalAlign=top;spacingLeft=4;spacingRight=4;overflow=hidden;rotatable=0;points=[[0,0.5],[1,0.5]];portConstraint=eastwest;whiteSpace=wrap;html=1;" vertex="1" parent="mpg4wZVlqjkKpL4CBiqG-41">
          <mxGeometry y="108" width="250" height="92" as="geometry" />
        </mxCell>
        <mxCell id="mpg4wZVlqjkKpL4CBiqG-49" value="AddressBook(UserDict)" style="swimlane;fontStyle=1;align=center;verticalAlign=top;childLayout=stackLayout;horizontal=1;startSize=26;horizontalStack=0;resizeParent=1;resizeParentMax=0;resizeLast=0;collapsible=1;marginBottom=0;whiteSpace=wrap;html=1;" vertex="1" parent="1">
          <mxGeometry x="510" y="380" width="260" height="150" as="geometry" />
        </mxCell>
        <mxCell id="mpg4wZVlqjkKpL4CBiqG-50" value="Extends: UserDict&amp;nbsp;" style="text;strokeColor=none;fillColor=none;align=left;verticalAlign=top;spacingLeft=4;spacingRight=4;overflow=hidden;rotatable=0;points=[[0,0.5],[1,0.5]];portConstraint=eastwest;whiteSpace=wrap;html=1;" vertex="1" parent="mpg4wZVlqjkKpL4CBiqG-49">
          <mxGeometry y="26" width="260" height="26" as="geometry" />
        </mxCell>
        <mxCell id="mpg4wZVlqjkKpL4CBiqG-51" value="" style="line;strokeWidth=1;fillColor=none;align=left;verticalAlign=middle;spacingTop=-1;spacingLeft=3;spacingRight=3;rotatable=0;labelPosition=right;points=[];portConstraint=eastwest;strokeColor=inherit;" vertex="1" parent="mpg4wZVlqjkKpL4CBiqG-49">
          <mxGeometry y="52" width="260" height="8" as="geometry" />
        </mxCell>
        <mxCell id="mpg4wZVlqjkKpL4CBiqG-52" value="+ add_record(record)&lt;div&gt;+&amp;nbsp;find(name)&lt;/div&gt;&lt;div&gt;+&amp;nbsp;delete(name)&lt;/div&gt;&lt;div&gt;+&amp;nbsp;get_upcoming_birthdays(days=7)&lt;br&gt;&lt;div&gt;&lt;br&gt;&lt;/div&gt;&lt;/div&gt;" style="text;strokeColor=none;fillColor=none;align=left;verticalAlign=top;spacingLeft=4;spacingRight=4;overflow=hidden;rotatable=0;points=[[0,0.5],[1,0.5]];portConstraint=eastwest;whiteSpace=wrap;html=1;" vertex="1" parent="mpg4wZVlqjkKpL4CBiqG-49">
          <mxGeometry y="60" width="260" height="90" as="geometry" />
        </mxCell>
        <mxCell id="mpg4wZVlqjkKpL4CBiqG-54" value="" style="endArrow=classic;html=1;rounded=0;entryX=0.5;entryY=1;entryDx=0;entryDy=0;startArrow=diamond;startFill=1;endFill=1;endSize=20;startSize=20;targetPerimeterSpacing=-6;sourcePerimeterSpacing=-6;" edge="1" parent="1" target="7Wo7_8ffw9FZAB1oPTl_-21">
          <mxGeometry width="50" height="50" relative="1" as="geometry">
            <mxPoint x="120" y="380" as="sourcePoint" />
            <mxPoint x="440" y="330" as="targetPoint" />
          </mxGeometry>
        </mxCell>
        <mxCell id="mpg4wZVlqjkKpL4CBiqG-55" value="" style="endArrow=classic;html=1;rounded=0;startArrow=diamond;startFill=1;endFill=1;endSize=20;startSize=20;entryX=0.219;entryY=0.875;entryDx=0;entryDy=0;entryPerimeter=0;" edge="1" parent="1" target="7Wo7_8ffw9FZAB1oPTl_-27">
          <mxGeometry width="50" height="50" relative="1" as="geometry">
            <mxPoint x="280" y="380" as="sourcePoint" />
            <mxPoint x="360" y="240" as="targetPoint" />
          </mxGeometry>
        </mxCell>
        <mxCell id="mpg4wZVlqjkKpL4CBiqG-56" value="" style="endArrow=classic;html=1;rounded=0;startArrow=diamond;startFill=1;endFill=1;endSize=20;startSize=20;exitX=0.92;exitY=0;exitDx=0;exitDy=0;exitPerimeter=0;entryX=0;entryY=0.5;entryDx=0;entryDy=0;" edge="1" parent="1">
          <mxGeometry width="50" height="50" relative="1" as="geometry">
            <mxPoint x="340" y="397" as="sourcePoint" />
            <mxPoint x="590" y="234" as="targetPoint" />
            <Array as="points">
              <mxPoint x="570" y="247" />
            </Array>
          </mxGeometry>
        </mxCell>
        <mxCell id="mpg4wZVlqjkKpL4CBiqG-57" value="" style="endArrow=classic;html=1;rounded=0;entryX=1.008;entryY=0.19;entryDx=0;entryDy=0;entryPerimeter=0;exitX=0;exitY=0.5;exitDx=0;exitDy=0;endFill=1;endSize=20;startSize=20;startArrow=diamond;startFill=0;" edge="1" parent="1" source="mpg4wZVlqjkKpL4CBiqG-52" target="mpg4wZVlqjkKpL4CBiqG-41">
          <mxGeometry width="50" height="50" relative="1" as="geometry">
            <mxPoint x="500" y="480" as="sourcePoint" />
            <mxPoint x="440" y="330" as="targetPoint" />
          </mxGeometry>
        </mxCell>
        <mxCell id="mpg4wZVlqjkKpL4CBiqG-59" value="" style="endArrow=none;html=1;rounded=0;startArrow=block;startFill=0;endSize=20;startSize=20;entryX=0.5;entryY=0;entryDx=0;entryDy=0;" edge="1" parent="1">
          <mxGeometry width="50" height="50" relative="1" as="geometry">
            <mxPoint x="390" y="140" as="sourcePoint" />
            <mxPoint x="401" y="200" as="targetPoint" />
          </mxGeometry>
        </mxCell>
        <mxCell id="mpg4wZVlqjkKpL4CBiqG-61" value="" style="endArrow=block;html=1;rounded=0;endFill=0;endSize=20;startSize=20;entryX=-0.025;entryY=0.846;entryDx=0;entryDy=0;entryPerimeter=0;" edge="1" parent="1" target="7Wo7_8ffw9FZAB1oPTl_-18">
          <mxGeometry width="50" height="50" relative="1" as="geometry">
            <mxPoint x="180" y="200" as="sourcePoint" />
            <mxPoint x="250" y="160" as="targetPoint" />
          </mxGeometry>
        </mxCell>
        <mxCell id="mpg4wZVlqjkKpL4CBiqG-62" value="" style="endArrow=block;html=1;rounded=0;endFill=0;endSize=20;startSize=20;entryX=1.019;entryY=0.846;entryDx=0;entryDy=0;entryPerimeter=0;exitX=0.25;exitY=0;exitDx=0;exitDy=0;" edge="1" parent="1" source="mpg4wZVlqjkKpL4CBiqG-19" target="7Wo7_8ffw9FZAB1oPTl_-18">
          <mxGeometry width="50" height="50" relative="1" as="geometry">
            <mxPoint x="600" y="190" as="sourcePoint" />
            <mxPoint x="590" y="100" as="targetPoint" />
          </mxGeometry>
        </mxCell>
      </root>
    </mxGraphModel>
  </diagram>
</mxfile>
